<mxfile host="app.diagrams.net" modified="2024-04-28T14:08:05.554Z" agent="Mozilla/5.0 (Windows NT 10.0; Win64; x64) AppleWebKit/537.36 (KHTML, like Gecko) Chrome/124.0.0.0 Safari/537.36" etag="e6423ebxnrrTigAIBCdH" version="24.2.7" type="device">
  <diagram name="Seite-1" id="ZuRoEVMXwNmJJn5fCB9J">
    <mxGraphModel dx="1041" dy="567" grid="1" gridSize="10" guides="1" tooltips="1" connect="1" arrows="1" fold="1" page="1" pageScale="1" pageWidth="1169" pageHeight="1654" math="0" shadow="0">
      <root>
        <mxCell id="0" />
        <mxCell id="1" parent="0" />
        <mxCell id="356PpX3Ozba4iZjvRvx4-8" value="" style="ellipse;html=1;shape=startState;fillColor=#000000;strokeColor=#ff0000;" vertex="1" parent="1">
          <mxGeometry x="384" y="20" width="30" height="30" as="geometry" />
        </mxCell>
        <mxCell id="356PpX3Ozba4iZjvRvx4-9" value="" style="edgeStyle=orthogonalEdgeStyle;html=1;verticalAlign=bottom;endArrow=open;endSize=8;strokeColor=#ff0000;rounded=0;" edge="1" source="356PpX3Ozba4iZjvRvx4-8" parent="1">
          <mxGeometry relative="1" as="geometry">
            <mxPoint x="399" y="120" as="targetPoint" />
          </mxGeometry>
        </mxCell>
        <mxCell id="356PpX3Ozba4iZjvRvx4-10" value="" style="line;strokeWidth=9;fillColor=none;align=left;verticalAlign=middle;spacingTop=-1;spacingLeft=3;spacingRight=3;rotatable=0;labelPosition=right;points=[];portConstraint=eastwest;strokeColor=inherit;perimeterSpacing=0;" vertex="1" parent="1">
          <mxGeometry x="240" y="120" width="321" height="8" as="geometry" />
        </mxCell>
        <mxCell id="356PpX3Ozba4iZjvRvx4-12" value="PO teilt Kaffee an alle Kaffeetrinker aus" style="rounded=1;whiteSpace=wrap;html=1;" vertex="1" parent="1">
          <mxGeometry x="240" y="180" width="120" height="40" as="geometry" />
        </mxCell>
        <mxCell id="356PpX3Ozba4iZjvRvx4-13" value="PO teilt Tee an alle Teetrinker aus" style="rounded=1;whiteSpace=wrap;html=1;" vertex="1" parent="1">
          <mxGeometry x="441" y="180" width="120" height="40" as="geometry" />
        </mxCell>
        <mxCell id="356PpX3Ozba4iZjvRvx4-14" value="" style="line;strokeWidth=9;fillColor=none;align=left;verticalAlign=middle;spacingTop=-1;spacingLeft=3;spacingRight=3;rotatable=0;labelPosition=right;points=[];portConstraint=eastwest;strokeColor=inherit;perimeterSpacing=0;" vertex="1" parent="1">
          <mxGeometry x="240" y="260" width="321" height="8" as="geometry" />
        </mxCell>
        <mxCell id="356PpX3Ozba4iZjvRvx4-18" value="" style="endArrow=open;endFill=1;endSize=12;html=1;rounded=0;entryX=0.5;entryY=0;entryDx=0;entryDy=0;" edge="1" parent="1" target="356PpX3Ozba4iZjvRvx4-12">
          <mxGeometry width="160" relative="1" as="geometry">
            <mxPoint x="300" y="128" as="sourcePoint" />
            <mxPoint x="460" y="128" as="targetPoint" />
            <Array as="points" />
          </mxGeometry>
        </mxCell>
        <mxCell id="356PpX3Ozba4iZjvRvx4-21" value="" style="endArrow=open;endFill=1;endSize=12;html=1;rounded=0;entryX=0.5;entryY=0;entryDx=0;entryDy=0;" edge="1" parent="1">
          <mxGeometry width="160" relative="1" as="geometry">
            <mxPoint x="500.74" y="128" as="sourcePoint" />
            <mxPoint x="500.74" y="180" as="targetPoint" />
            <Array as="points" />
          </mxGeometry>
        </mxCell>
        <mxCell id="356PpX3Ozba4iZjvRvx4-22" value="" style="endArrow=open;endFill=1;endSize=12;html=1;rounded=0;" edge="1" parent="1">
          <mxGeometry width="160" relative="1" as="geometry">
            <mxPoint x="299.74" y="220" as="sourcePoint" />
            <mxPoint x="300" y="260" as="targetPoint" />
            <Array as="points" />
          </mxGeometry>
        </mxCell>
        <mxCell id="356PpX3Ozba4iZjvRvx4-23" value="" style="endArrow=open;endFill=1;endSize=12;html=1;rounded=0;" edge="1" parent="1">
          <mxGeometry width="160" relative="1" as="geometry">
            <mxPoint x="500.74" y="220" as="sourcePoint" />
            <mxPoint x="501" y="260" as="targetPoint" />
            <Array as="points" />
          </mxGeometry>
        </mxCell>
        <mxCell id="356PpX3Ozba4iZjvRvx4-24" value="PO stellt das Ziel des Sprints vor" style="rounded=1;whiteSpace=wrap;html=1;" vertex="1" parent="1">
          <mxGeometry x="339" y="320" width="120" height="40" as="geometry" />
        </mxCell>
        <mxCell id="356PpX3Ozba4iZjvRvx4-25" value="" style="endArrow=open;endFill=1;endSize=12;html=1;rounded=0;entryX=0.5;entryY=0;entryDx=0;entryDy=0;" edge="1" parent="1">
          <mxGeometry width="160" relative="1" as="geometry">
            <mxPoint x="398.74" y="268" as="sourcePoint" />
            <mxPoint x="398.74" y="320" as="targetPoint" />
            <Array as="points" />
          </mxGeometry>
        </mxCell>
        <mxCell id="356PpX3Ozba4iZjvRvx4-26" value="PO gibt Überblick über alle Anforderungen des Sprints" style="rounded=1;whiteSpace=wrap;html=1;" vertex="1" parent="1">
          <mxGeometry x="330" y="470" width="140" height="50" as="geometry" />
        </mxCell>
        <mxCell id="356PpX3Ozba4iZjvRvx4-27" value="" style="endArrow=open;endFill=1;endSize=12;html=1;rounded=0;" edge="1" parent="1">
          <mxGeometry width="160" relative="1" as="geometry">
            <mxPoint x="398.74" y="360" as="sourcePoint" />
            <mxPoint x="399" y="400" as="targetPoint" />
            <Array as="points" />
          </mxGeometry>
        </mxCell>
        <mxCell id="356PpX3Ozba4iZjvRvx4-28" value="Anforderung wird im Team diskutiert" style="rounded=1;whiteSpace=wrap;html=1;" vertex="1" parent="1">
          <mxGeometry x="339" y="572" width="120" height="40" as="geometry" />
        </mxCell>
        <mxCell id="356PpX3Ozba4iZjvRvx4-29" value="" style="endArrow=open;endFill=1;endSize=12;html=1;rounded=0;entryX=0.5;entryY=0;entryDx=0;entryDy=0;" edge="1" parent="1">
          <mxGeometry width="160" relative="1" as="geometry">
            <mxPoint x="398.74" y="520" as="sourcePoint" />
            <mxPoint x="398.74" y="572" as="targetPoint" />
            <Array as="points" />
          </mxGeometry>
        </mxCell>
        <mxCell id="356PpX3Ozba4iZjvRvx4-31" value="" style="strokeWidth=2;html=1;shape=mxgraph.flowchart.decision;whiteSpace=wrap;direction=south;" vertex="1" parent="1">
          <mxGeometry x="376.5" y="645" width="45" height="41" as="geometry" />
        </mxCell>
        <mxCell id="356PpX3Ozba4iZjvRvx4-32" value="" style="endArrow=open;endFill=1;endSize=12;html=1;rounded=0;" edge="1" parent="1" target="356PpX3Ozba4iZjvRvx4-31">
          <mxGeometry width="160" relative="1" as="geometry">
            <mxPoint x="398.7" y="612" as="sourcePoint" />
            <mxPoint x="400" y="640" as="targetPoint" />
            <Array as="points" />
          </mxGeometry>
        </mxCell>
        <mxCell id="356PpX3Ozba4iZjvRvx4-33" value="" style="endArrow=open;endFill=1;endSize=12;html=1;rounded=0;exitX=0.5;exitY=0;exitDx=0;exitDy=0;exitPerimeter=0;entryX=1;entryY=0.5;entryDx=0;entryDy=0;" edge="1" parent="1" source="356PpX3Ozba4iZjvRvx4-31" target="356PpX3Ozba4iZjvRvx4-28">
          <mxGeometry width="160" relative="1" as="geometry">
            <mxPoint x="430" y="665.2" as="sourcePoint" />
            <mxPoint x="470" y="600" as="targetPoint" />
            <Array as="points">
              <mxPoint x="490" y="665" />
              <mxPoint x="490" y="592" />
            </Array>
          </mxGeometry>
        </mxCell>
        <mxCell id="356PpX3Ozba4iZjvRvx4-34" value="[noch nicht alle Anforderungen diskutiert]" style="text;html=1;align=center;verticalAlign=middle;whiteSpace=wrap;rounded=0;" vertex="1" parent="1">
          <mxGeometry x="490" y="600" width="100" height="60" as="geometry" />
        </mxCell>
        <mxCell id="356PpX3Ozba4iZjvRvx4-35" value="" style="endArrow=open;endFill=1;endSize=12;html=1;rounded=0;exitX=1;exitY=0.5;exitDx=0;exitDy=0;exitPerimeter=0;" edge="1" parent="1" source="356PpX3Ozba4iZjvRvx4-31">
          <mxGeometry width="160" relative="1" as="geometry">
            <mxPoint x="400" y="690" as="sourcePoint" />
            <mxPoint x="400" y="760" as="targetPoint" />
            <Array as="points" />
          </mxGeometry>
        </mxCell>
        <mxCell id="356PpX3Ozba4iZjvRvx4-36" value="[alle Anforderungen diskutiert]" style="text;html=1;align=center;verticalAlign=middle;whiteSpace=wrap;rounded=0;" vertex="1" parent="1">
          <mxGeometry x="300" y="686" width="100" height="60" as="geometry" />
        </mxCell>
        <mxCell id="356PpX3Ozba4iZjvRvx4-37" value="" style="endArrow=open;endFill=1;endSize=12;html=1;rounded=0;exitX=0.5;exitY=1;exitDx=0;exitDy=0;" edge="1" parent="1" source="356PpX3Ozba4iZjvRvx4-38">
          <mxGeometry width="160" relative="1" as="geometry">
            <mxPoint x="400" y="820" as="sourcePoint" />
            <mxPoint x="401" y="860" as="targetPoint" />
            <Array as="points" />
          </mxGeometry>
        </mxCell>
        <mxCell id="356PpX3Ozba4iZjvRvx4-38" value="Aufwand der Anforderungen wird im Team geschätzt" style="rounded=1;whiteSpace=wrap;html=1;" vertex="1" parent="1">
          <mxGeometry x="330.5" y="760" width="140" height="50" as="geometry" />
        </mxCell>
        <mxCell id="356PpX3Ozba4iZjvRvx4-39" value="" style="strokeWidth=2;html=1;shape=mxgraph.flowchart.decision;whiteSpace=wrap;direction=south;" vertex="1" parent="1">
          <mxGeometry x="377.5" y="940" width="45" height="41" as="geometry" />
        </mxCell>
        <mxCell id="356PpX3Ozba4iZjvRvx4-40" value="" style="endArrow=open;endFill=1;endSize=12;html=1;rounded=0;entryX=0.5;entryY=0;entryDx=0;entryDy=0;exitX=1;exitY=0.5;exitDx=0;exitDy=0;exitPerimeter=0;" edge="1" parent="1" source="356PpX3Ozba4iZjvRvx4-39" target="356PpX3Ozba4iZjvRvx4-41">
          <mxGeometry width="160" relative="1" as="geometry">
            <mxPoint x="400.5" y="980" as="sourcePoint" />
            <mxPoint x="399.29" y="1023" as="targetPoint" />
            <Array as="points" />
          </mxGeometry>
        </mxCell>
        <mxCell id="356PpX3Ozba4iZjvRvx4-41" value="Anforderung wird mit einer Priorität versehen" style="rounded=1;whiteSpace=wrap;html=1;" vertex="1" parent="1">
          <mxGeometry x="328.5" y="1040" width="141" height="40" as="geometry" />
        </mxCell>
        <mxCell id="356PpX3Ozba4iZjvRvx4-42" value="[Anforderung wird&amp;nbsp; aufgenommen]" style="text;html=1;align=center;verticalAlign=middle;whiteSpace=wrap;rounded=0;" vertex="1" parent="1">
          <mxGeometry x="284" y="981" width="100" height="40" as="geometry" />
        </mxCell>
        <mxCell id="356PpX3Ozba4iZjvRvx4-43" value="Product Backlog" style="rounded=0;whiteSpace=wrap;html=1;" vertex="1" parent="1">
          <mxGeometry x="340.5" y="860" width="120" height="30" as="geometry" />
        </mxCell>
        <mxCell id="356PpX3Ozba4iZjvRvx4-44" value="" style="endArrow=open;endFill=1;endSize=12;html=1;rounded=0;exitX=0.5;exitY=1;exitDx=0;exitDy=0;" edge="1" parent="1">
          <mxGeometry width="160" relative="1" as="geometry">
            <mxPoint x="400.2" y="890" as="sourcePoint" />
            <mxPoint x="400.2" y="940" as="targetPoint" />
            <Array as="points" />
          </mxGeometry>
        </mxCell>
        <mxCell id="356PpX3Ozba4iZjvRvx4-45" value="Selektierte Product Backlog" style="rounded=0;whiteSpace=wrap;html=1;" vertex="1" parent="1">
          <mxGeometry x="340.5" y="1130" width="120" height="30" as="geometry" />
        </mxCell>
        <mxCell id="356PpX3Ozba4iZjvRvx4-46" value="" style="endArrow=open;endFill=1;endSize=12;html=1;rounded=0;exitX=0.5;exitY=1;exitDx=0;exitDy=0;" edge="1" parent="1">
          <mxGeometry width="160" relative="1" as="geometry">
            <mxPoint x="401" y="1080" as="sourcePoint" />
            <mxPoint x="401" y="1130" as="targetPoint" />
            <Array as="points" />
          </mxGeometry>
        </mxCell>
        <mxCell id="356PpX3Ozba4iZjvRvx4-49" value="Sprintziel" style="rounded=0;whiteSpace=wrap;html=1;" vertex="1" parent="1">
          <mxGeometry x="339" y="400" width="120" height="20" as="geometry" />
        </mxCell>
        <mxCell id="356PpX3Ozba4iZjvRvx4-50" value="" style="endArrow=open;endFill=1;endSize=12;html=1;rounded=0;entryX=0.5;entryY=0;entryDx=0;entryDy=0;" edge="1" parent="1" target="356PpX3Ozba4iZjvRvx4-26">
          <mxGeometry width="160" relative="1" as="geometry">
            <mxPoint x="398.85" y="420" as="sourcePoint" />
            <mxPoint x="399.11" y="460" as="targetPoint" />
            <Array as="points" />
          </mxGeometry>
        </mxCell>
        <mxCell id="356PpX3Ozba4iZjvRvx4-51" value="" style="endArrow=open;endFill=1;endSize=12;html=1;rounded=0;exitX=0.5;exitY=0;exitDx=0;exitDy=0;exitPerimeter=0;entryX=0.498;entryY=0.908;entryDx=0;entryDy=0;entryPerimeter=0;" edge="1" parent="1" source="356PpX3Ozba4iZjvRvx4-39" target="356PpX3Ozba4iZjvRvx4-52">
          <mxGeometry width="160" relative="1" as="geometry">
            <mxPoint x="422.5" y="960.2" as="sourcePoint" />
            <mxPoint x="520" y="960" as="targetPoint" />
          </mxGeometry>
        </mxCell>
        <mxCell id="356PpX3Ozba4iZjvRvx4-52" value="" style="line;strokeWidth=5;fillColor=none;align=left;verticalAlign=middle;spacingTop=-1;spacingLeft=3;spacingRight=3;rotatable=0;labelPosition=right;points=[];portConstraint=eastwest;strokeColor=inherit;perimeterSpacing=0;direction=south;" vertex="1" parent="1">
          <mxGeometry x="578" y="920.5" width="5" height="80" as="geometry" />
        </mxCell>
        <mxCell id="356PpX3Ozba4iZjvRvx4-53" value="neue Abschätzung" style="rounded=1;whiteSpace=wrap;html=1;" vertex="1" parent="1">
          <mxGeometry x="510" y="855" width="141" height="40" as="geometry" />
        </mxCell>
        <mxCell id="356PpX3Ozba4iZjvRvx4-54" value="" style="endArrow=open;endFill=1;endSize=12;html=1;rounded=0;exitX=0.293;exitY=0.1;exitDx=0;exitDy=0;exitPerimeter=0;entryX=1;entryY=0.5;entryDx=0;entryDy=0;" edge="1" parent="1" source="356PpX3Ozba4iZjvRvx4-52" target="356PpX3Ozba4iZjvRvx4-53">
          <mxGeometry width="160" relative="1" as="geometry">
            <mxPoint x="585" y="944" as="sourcePoint" />
            <mxPoint x="622" y="870" as="targetPoint" />
            <Array as="points">
              <mxPoint x="680" y="943" />
              <mxPoint x="680" y="875" />
            </Array>
          </mxGeometry>
        </mxCell>
        <mxCell id="356PpX3Ozba4iZjvRvx4-55" value="" style="endArrow=open;endFill=1;endSize=12;html=1;rounded=0;exitX=0;exitY=0.5;exitDx=0;exitDy=0;entryX=1;entryY=0.5;entryDx=0;entryDy=0;" edge="1" parent="1" source="356PpX3Ozba4iZjvRvx4-53" target="356PpX3Ozba4iZjvRvx4-43">
          <mxGeometry width="160" relative="1" as="geometry">
            <mxPoint x="680" y="801" as="sourcePoint" />
            <mxPoint x="620" y="800" as="targetPoint" />
          </mxGeometry>
        </mxCell>
        <mxCell id="356PpX3Ozba4iZjvRvx4-56" value="" style="endArrow=open;endFill=1;endSize=12;html=1;rounded=0;exitX=0.756;exitY=0.212;exitDx=0;exitDy=0;exitPerimeter=0;entryX=0.5;entryY=1;entryDx=0;entryDy=0;entryPerimeter=0;" edge="1" parent="1" source="356PpX3Ozba4iZjvRvx4-52" target="356PpX3Ozba4iZjvRvx4-57">
          <mxGeometry width="160" relative="1" as="geometry">
            <mxPoint x="585" y="981" as="sourcePoint" />
            <mxPoint x="740" y="980" as="targetPoint" />
          </mxGeometry>
        </mxCell>
        <mxCell id="356PpX3Ozba4iZjvRvx4-57" value="" style="strokeWidth=2;html=1;shape=mxgraph.flowchart.decision;whiteSpace=wrap;direction=south;" vertex="1" parent="1">
          <mxGeometry x="740" y="960" width="40" height="40.5" as="geometry" />
        </mxCell>
        <mxCell id="356PpX3Ozba4iZjvRvx4-61" value="" style="endArrow=open;endFill=1;endSize=12;html=1;rounded=0;exitX=0;exitY=0.5;exitDx=0;exitDy=0;exitPerimeter=0;entryX=1;entryY=0.5;entryDx=0;entryDy=0;" edge="1" parent="1" source="356PpX3Ozba4iZjvRvx4-57" target="356PpX3Ozba4iZjvRvx4-49">
          <mxGeometry width="160" relative="1" as="geometry">
            <mxPoint x="760" y="940" as="sourcePoint" />
            <mxPoint x="480" y="410" as="targetPoint" />
            <Array as="points">
              <mxPoint x="760" y="410" />
            </Array>
          </mxGeometry>
        </mxCell>
        <mxCell id="356PpX3Ozba4iZjvRvx4-62" value="[Sprintziel muss angepasst werden]" style="text;html=1;align=center;verticalAlign=middle;whiteSpace=wrap;rounded=0;" vertex="1" parent="1">
          <mxGeometry x="760" y="880.5" width="100" height="40" as="geometry" />
        </mxCell>
        <mxCell id="356PpX3Ozba4iZjvRvx4-65" value="" style="endArrow=open;endFill=1;endSize=12;html=1;rounded=0;entryX=0.5;entryY=0;entryDx=0;entryDy=0;exitX=0.5;exitY=1;exitDx=0;exitDy=0;" edge="1" parent="1" target="356PpX3Ozba4iZjvRvx4-66" source="356PpX3Ozba4iZjvRvx4-45">
          <mxGeometry width="160" relative="1" as="geometry">
            <mxPoint x="402" y="1160" as="sourcePoint" />
            <mxPoint x="401.29" y="1202" as="targetPoint" />
            <Array as="points" />
          </mxGeometry>
        </mxCell>
        <mxCell id="356PpX3Ozba4iZjvRvx4-66" value="neue Kapazität (Velocity) des Teams" style="rounded=1;whiteSpace=wrap;html=1;" vertex="1" parent="1">
          <mxGeometry x="330.5" y="1219" width="141" height="40" as="geometry" />
        </mxCell>
        <mxCell id="356PpX3Ozba4iZjvRvx4-67" value="" style="endArrow=open;endFill=1;endSize=12;html=1;rounded=0;entryX=0.5;entryY=0;entryDx=0;entryDy=0;exitX=0.49;exitY=1;exitDx=0;exitDy=0;exitPerimeter=0;" edge="1" parent="1" target="356PpX3Ozba4iZjvRvx4-68" source="356PpX3Ozba4iZjvRvx4-66">
          <mxGeometry width="160" relative="1" as="geometry">
            <mxPoint x="401" y="1259" as="sourcePoint" />
            <mxPoint x="400.29" y="1301" as="targetPoint" />
            <Array as="points" />
          </mxGeometry>
        </mxCell>
        <mxCell id="356PpX3Ozba4iZjvRvx4-68" value="Forecast" style="rounded=1;whiteSpace=wrap;html=1;" vertex="1" parent="1">
          <mxGeometry x="329.5" y="1318" width="141" height="40" as="geometry" />
        </mxCell>
        <mxCell id="356PpX3Ozba4iZjvRvx4-69" value="" style="endArrow=open;endFill=1;endSize=12;html=1;rounded=0;entryX=0.494;entryY=-0.005;entryDx=0;entryDy=0;exitX=0.5;exitY=1;exitDx=0;exitDy=0;entryPerimeter=0;" edge="1" parent="1" target="356PpX3Ozba4iZjvRvx4-70" source="356PpX3Ozba4iZjvRvx4-68">
          <mxGeometry width="160" relative="1" as="geometry">
            <mxPoint x="402" y="1358" as="sourcePoint" />
            <mxPoint x="401.29" y="1400" as="targetPoint" />
            <Array as="points" />
          </mxGeometry>
        </mxCell>
        <mxCell id="356PpX3Ozba4iZjvRvx4-70" value="Ergebnisse des Meetings werden in Confluence dokumentiert" style="rounded=1;whiteSpace=wrap;html=1;" vertex="1" parent="1">
          <mxGeometry x="330.5" y="1417" width="141" height="43" as="geometry" />
        </mxCell>
        <mxCell id="356PpX3Ozba4iZjvRvx4-71" value="" style="ellipse;html=1;shape=endState;fillColor=#000000;strokeColor=#ff0000;" vertex="1" parent="1">
          <mxGeometry x="385" y="1510" width="30" height="30" as="geometry" />
        </mxCell>
        <mxCell id="356PpX3Ozba4iZjvRvx4-72" value="" style="endArrow=open;endFill=1;endSize=12;html=1;rounded=0;entryX=0.5;entryY=0;entryDx=0;entryDy=0;exitX=0.493;exitY=1.001;exitDx=0;exitDy=0;exitPerimeter=0;" edge="1" parent="1" source="356PpX3Ozba4iZjvRvx4-70" target="356PpX3Ozba4iZjvRvx4-71">
          <mxGeometry width="160" relative="1" as="geometry">
            <mxPoint x="401" y="1460" as="sourcePoint" />
            <mxPoint x="560" y="1490" as="targetPoint" />
          </mxGeometry>
        </mxCell>
        <mxCell id="356PpX3Ozba4iZjvRvx4-73" value="[Anforderung wird nicht aufgenommen]" style="text;html=1;align=center;verticalAlign=middle;whiteSpace=wrap;rounded=0;" vertex="1" parent="1">
          <mxGeometry x="441" y="920" width="100" height="40" as="geometry" />
        </mxCell>
      </root>
    </mxGraphModel>
  </diagram>
</mxfile>
